<svg xmlns="http://www.w3.org/2000/svg" width="32" height="32" viewBox="0 0 32 32"><title>animation-icon</title><g fill="#FFF" fill-rule="nonzero"><path d="M16.344 3.913c-.198-.024-.398-.043-.6-.057-.267-.02-.537-.029-.81-.029-6.296 0-11.4 5.104-11.4 11.4 0 .477.03.948.087 1.41l-.142-.137c-3.515-3.515-3.515-9.213 0-12.728C6.894.357 12.37.26 15.902 3.481c.069.063.216.207.442.432z" opacity=".6"/><path d="M21.298 8.863c.583.583 1.07 1.226 1.46 1.91-.341-.032-.687-.047-1.035-.047-6.297 0-11.4 5.104-11.4 11.4 0 .287.01.571.031.853-.635-.378-1.236-.84-1.784-1.388-3.514-3.515-3.514-9.213 0-12.728 3.515-3.514 9.214-3.514 12.728 0z" opacity=".8"/><path d="M28.087 15.762c3.514 3.514 3.514 9.213 0 12.728-3.515 3.514-9.214 3.514-12.728 0-3.515-3.515-3.515-9.214 0-12.728 3.514-3.515 9.213-3.515 12.728 0z"/></g></svg>