<svg xmlns="http://www.w3.org/2000/svg" width="32" height="32" viewBox="0 0 32 32"><title>chart-icon</title><g fill="#FFF" fill-rule="nonzero"><path d="M29.79 14.687c.334 0 .605-.27.605-.604C30.387 7.413 24.973 2.008 18.292 2c-.335 0-.606.27-.606.604V13.51c.001.65.529 1.178 1.18 1.18l10.924-.002z" opacity=".6"/><path d="M30.395 16.5H18.897c-.367-.047-.72.157-.861.498-.141.341-.037.735.256.96l8.13 8.118c.237.236.62.236.856 0C29.67 23.7 31.01 20.47 31 17.104c0-.334-.271-.604-.605-.604z" opacity=".8"/><path d="M14.767 31c3.34-.007 6.538-1.35 8.88-3.727.236-.236.236-.618 0-.854l-8.13-8.117c-.144-.172-.231-.383-.251-.605V6.218c0-.333-.271-.604-.605-.604-4.543.02-8.73 2.456-10.984 6.393-2.255 3.936-2.235 8.775.053 12.692 2.288 3.918 6.495 6.32 11.037 6.3z"/></g></svg>