<svg xmlns="http://www.w3.org/2000/svg" width="32" height="32" viewBox="0 0 32 32"><title>color-icon</title><path fill="#FFF" fill-rule="nonzero" d="M29.902 14.61c-.723-5.777-4.86-10.549-10.478-12.086-2.191-.687-4.539-.699-6.736-.032-5.035 1.371-8.95 5.332-10.263 10.38-1.206 4.764.195 9.81 3.684 13.271.954.96 2.445 1.133 3.593.417.451-.284.748-.758.806-1.288.058-.53-.128-1.057-.507-1.432l-.943-.944c-.456-.455-.456-1.193 0-1.648.21-.288.53-.475.884-.517.354-.042.71.066.981.296 1.645 1.643 6.554 6.593 6.557 6.594.867.877 2.048 1.373 3.283 1.379.791.001 1.568-.212 2.248-.618 4.842-2.804 7.55-8.218 6.891-13.771zm-11.025 8.508c-1.17-1.18-1.17-3.086 0-4.265 1.188-1.137 3.055-1.137 4.243 0 1.173 1.177 1.173 3.086.002 4.263-1.172 1.178-3.073 1.179-4.245.002zM18 9.5C18 8.12 19.12 7 20.5 7S23 8.12 23 9.5 21.88 12 20.5 12 18 10.88 18 9.5zm5.44 7.062c-.43-.43-.558-1.075-.326-1.636.232-.56.78-.926 1.386-.926.607 0 1.154.366 1.386.926.232.561.104 1.207-.326 1.636-.282.281-.664.439-1.063.438-.398 0-.78-.16-1.06-.443l.003.005zM15.267 6.71c.715.718.93 1.799.543 2.738C15.423 10.388 14.51 11 13.5 11c-1.011 0-1.923-.612-2.31-1.551-.387-.94-.172-2.02.543-2.738.99-.948 2.545-.948 3.534 0z"/></svg>