<svg xmlns="http://www.w3.org/2000/svg" width="32" height="32" viewBox="0 0 32 32"><title>control-icon</title><g fill="#FFF" fill-rule="nonzero"><path d="M10.05 15h11.9c2.79 0 5.05-2.239 5.05-5s-2.26-5-5.05-5h-11.9C7.26 5 5 7.239 5 10s2.26 5 5.05 5zm0-8.042c1.656 0 3 1.343 3 3 0 1.656-1.344 3-3 3-1.658 0-3-1.344-3-3 0-1.657 1.343-3 3-3z"/><path fill-opacity=".8" d="M10.05 27h11.9c2.79 0 5.05-2.239 5.05-5s-2.26-5-5.05-5h-11.9c-1.805 0-3.472.953-4.374 2.5-.901 1.547-.901 3.453 0 5 .902 1.547 2.57 2.5 4.373 2.5zm11.9-7.948c1.658 0 3 1.342 3 2.997 0 1.655-1.342 2.996-3 2.996-1.656 0-3-1.341-3-2.996 0-.796.315-1.56.877-2.123.563-.563 1.327-.88 2.124-.88v.006z"/></g></svg>