<svg width="32" height="32" xmlns="http://www.w3.org/2000/svg" viewBox="0 0 32 32"><path d="M4.262 4.262a3.906 3.906 0 0 1 6.66 3.008l3.697-3.698c.763-.763 2-.763 2.762 0l2.446 2.445a.976.976 0 0 1-.381 1.617c-.604.202-1.062.459-1.375.771a3.906 3.906 0 1 0 5.524 5.524c.312-.313.57-.77.771-1.375a.976.976 0 0 1 1.617-.38l2.445 2.445c.763.763.763 2 0 2.762l-3.697 3.697a3.906 3.906 0 1 1-3.654 3.654l-3.696 3.696c-.763.763-2 .763-2.762 0l-2.166-2.165a.976.976 0 0 1 .186-1.526c.25-.151.45-.301.6-.452a3.906 3.906 0 0 0-5.524-5.523c-.15.15-.301.35-.452.6a.976.976 0 0 1-1.526.185L3.572 17.38c-.763-.763-.763-2 0-2.762l3.698-3.697a3.906 3.906 0 0 1-3.008-6.66z" fill="#FFF" fill-rule="evenodd"/></svg>
