<svg xmlns="http://www.w3.org/2000/svg" width="32" height="32" viewBox="0 0 32 32"><title>graphics-icon</title><g fill="#FFF" fill-rule="nonzero" transform="translate(3 3)"><rect width="7.6" height="7.6" x="9.5" y="9.5" opacity=".8" rx=".297"/><path d="M7.28 7.6c.177 0 .32-.143.32-.32V1.27c0-.13-.078-.246-.197-.296-.12-.05-.257-.022-.348.07l-6.011 6.01c-.092.092-.12.23-.07.349.05.12.167.197.296.197h6.01z" opacity=".6"/><path d="M19.32 19c-.177 0-.32.143-.32.32v6.01c0 .13.078.246.197.296.12.05.257.022.348-.07l6.011-6.01c.092-.092.12-.23.07-.349-.05-.12-.167-.197-.296-.197h-6.01z"/><path d="M7.508 17.97c.059-.058.092-.134.092-.214V9.802c0-.167-.142-.302-.317-.302H.317C.142 9.5 0 9.635 0 9.802v14.596c0 .122.077.232.195.279.119.047.255.02.346-.066l6.967-6.642z" opacity=".6"/><path d="M17.1 19.317c0-.175-.135-.317-.302-.317h-7.44c-.08 0-.158.033-.214.092L1.989 26.06c-.087.09-.113.227-.066.345.046.118.156.196.278.196h14.597c.167 0 .302-.142.302-.317v-6.966z"/><path d="M19.092 8.63c-.059.058-.092.134-.092.215v7.953c0 .167.142.302.317.302h6.966c.175 0 .317-.135.317-.302V2.202c0-.122-.077-.232-.195-.279-.119-.047-.255-.02-.346.066L19.092 8.63zM9.5 7.283c0 .175.135.317.302.317l7.405-.02c.08 0 .157-.034.214-.093L24.61.541c.087-.09.113-.227.066-.346C24.63.077 24.52 0 24.397 0H9.803C9.635 0 9.5.142 9.5.317v6.966z" opacity=".8"/></g></svg>