<svg width="32" height="32" xmlns="http://www.w3.org/2000/svg"><path d="M32 2.667A2.667 2.667 0 0 0 29.333 0H2.667A2.667 2.667 0 0 0 0 2.667v26.666A2.667 2.667 0 0 0 2.667 32h26.666A2.667 2.667 0 0 0 32 29.333V2.667zm-2.667 6.31c0 .184-.149.334-.333.334H17.667a.333.333 0 0 1-.334-.334V3c0-.184.15-.333.334-.333h11c.368 0 .666.298.666.666v5.644zM3 19.977a.333.333 0 0 1-.333-.333v-7.333c0-.184.149-.334.333-.334h26c.184 0 .333.15.333.334v7.333c0 .184-.149.333-.333.333H3zm11.333-17.31c.184 0 .334.149.334.333v5.977c0 .184-.15.334-.334.334H3a.333.333 0 0 1-.333-.334V3.333c0-.368.298-.666.666-.666h11zM2.667 22.977c0-.184.149-.333.333-.333h11.333c.184 0 .334.15.334.333V29c0 .184-.15.333-.334.333h-11a.667.667 0 0 1-.666-.666v-5.69zm15 6.356a.333.333 0 0 1-.334-.333v-6.023c0-.184.15-.333.334-.333H29c.184 0 .333.15.333.333v5.69a.667.667 0 0 1-.666.666h-11z" fill="#FFF" fill-rule="nonzero"/></svg>