<svg xmlns="http://www.w3.org/2000/svg" width="32" height="32" viewBox="0 0 32 32"><title>image-icon</title><path fill="#FFF" fill-rule="nonzero" d="M26.561 4H6.439C5.092 4 4 5.092 4 6.439v20.122C4 27.908 5.092 29 6.439 29h20.122C27.908 29 29 27.908 29 26.561V6.439C29 5.092 27.908 4 26.561 4zm-15.04 15.162c.194-.389.58-.645 1.015-.672.434-.028.85.179 1.09.54l1.013 1.52c.06.089.161.14.268.135.107-.005.203-.066.254-.16l2.972-5.521c.215-.41.648-.66 1.11-.638.461.012.876.283 1.072.7l4.363 9.268c.089.19.075.41-.037.587-.112.176-.306.283-.515.283H9.488c-.212 0-.408-.11-.519-.29-.111-.18-.121-.404-.026-.593l2.578-5.159zm-2.338-7.544c0-1.347 1.092-2.439 2.439-2.439s2.439 1.092 2.439 2.44c0 1.346-1.092 2.438-2.439 2.438s-2.44-1.092-2.44-2.439z"/></svg>