<svg xmlns="http://www.w3.org/2000/svg" width="32" height="32" viewBox="0 0 32 32"><title>layout-icon</title><g fill="#FFF" fill-rule="nonzero"><path d="M29.333 8.977c0 .184-.149.334-.333.334H17.667c-.184 0-.334-.15-.334-.334V3c0-.184.15-.333.334-.333h11c.368 0 .666.298.666.666v5.644z" opacity=".6"/><path d="M3 19.977c-.184 0-.333-.149-.333-.333v-7.333c0-.184.149-.334.333-.334h26c.184 0 .333.15.333.334v7.333c0 .184-.149.333-.333.333H3z"/><path d="M14.333 2.667c.184 0 .334.149.334.333v5.977c0 .184-.15.334-.334.334H3c-.184 0-.333-.15-.333-.334V3.333c0-.368.298-.666.666-.666h11z" opacity=".8"/><path d="M2.667 22.977c0-.184.149-.333.333-.333h11.333c.184 0 .334.15.334.333V29c0 .184-.15.333-.334.333h-11c-.368 0-.666-.298-.666-.666v-5.69z" opacity=".6"/><path d="M17.667 29.333c-.184 0-.334-.149-.334-.333v-6.023c0-.184.15-.333.334-.333H29c.184 0 .333.15.333.333v5.69c0 .368-.298.666-.666.666h-11z" opacity=".8"/></g></svg>