<?xml version="1.0" encoding="UTF-8"?>
<svg width="32px" height="32px" viewBox="0 0 32 32" version="1.1" xmlns="http://www.w3.org/2000/svg" xmlns:xlink="http://www.w3.org/1999/xlink">
    <!-- Generator: Sketch 57.1 (83088) - https://sketch.com -->
    <title>navigation-icon</title>
    <desc>Created with Sketch.</desc>
    <g id="navigation-icon" stroke="none" stroke-width="1" fill="none" fill-rule="evenodd">
        <path d="M26.8095117,16 C27.4231677,16 27.9283801,16.4521403 27.9930144,17.032986 L28,17.1593051 L28,22.9558305 C28,23.5534125 27.535698,24.0453916 26.9392285,24.1083329 L26.8095117,24.1151355 L18.4760936,24.1151355 L18.4760936,29.4203475 C18.4760936,29.7084674 18.2602287,29.94749 17.9774012,29.9924133 L17.8808495,30 L16.7315311,30 C16.4356612,30 16.1902093,29.7897894 16.1440777,29.5143701 L16.1362869,29.4203475 L16.095117,24.1151355 L7.16645481,24.1151355 C6.85056044,24.1159685 6.5474641,23.9936474 6.32477959,23.7754591 L3.34855885,20.8771965 C2.9170098,20.4568243 2.88618487,19.7940475 3.25608405,19.3390462 L3.34855885,19.2379391 L6.22533128,16.440521 C6.41620372,16.2535025 6.7392183,16.1197234 7.02654339,16.0858421 L7.16645481,16.0774423 L26.8095117,16 Z" id="Path" fill="#FFFFFF" fill-rule="nonzero"></path>
        <path d="M15.8662805,13.9503508 L8.27835907,13.9503508 C7.6671692,13.9503508 7.16398707,13.4903066 7.09961252,12.899307 L7.09265497,12.7707797 L7,6.38688048 C7,5.77885195 7.46243614,5.27827251 8.05650858,5.21423093 L8.18570411,5.20730937 L15.8160575,5.20730937 L15.8160575,3.08968774 C15.8160575,2.53085681 16.2385694,2.07027706 16.782895,2.00733113 L16.9105341,2 L17.0519846,2 C17.6132715,2 18.0758754,2.42066326 18.1390979,2.96260713 L18.1464613,3.08968774 L18.1464613,5.20730937 L24.7576339,5.20730937 C25.0273123,5.20658289 25.287626,5.2979187 25.4961669,5.46383276 L25.5959267,5.5529237 L28.6528419,8.68929376 C29.0826567,9.11701451 29.1133577,9.79137741 28.7449451,10.2543327 L28.6528419,10.3572073 L25.6885816,13.6047365 C25.4984762,13.7950243 25.2495302,13.9136479 24.9841513,13.9431232 L24.8502888,13.9503508 L18.0552338,13.9503508 L15.8662805,13.9503508 Z" id="Path" fill-opacity="0.8" fill="#FFFFFF" fill-rule="nonzero"></path>
    </g>
</svg>