<svg width="14" height="14" xmlns="http://www.w3.org/2000/svg"><path d="M2.625 5.414a5.799 5.799 0 0 1 4.233 1.684 6.04 6.04 0 0 1 1.783 4.264c0 .352-.28.638-.625.638a.631.631 0 0 1-.625-.638 4.765 4.765 0 0 0-1.42-3.358 4.574 4.574 0 0 0-3.346-1.315A.631.631 0 0 1 2 6.052c0-.353.28-.638.625-.638zM2.638 2C7.888 2 12 6.112 12 11.362c0 .352-.28.638-.625.638a.631.631 0 0 1-.625-.638c0-4.535-3.563-8.087-8.112-8.087a.631.631 0 0 1-.625-.637c0-.352.28-.638.625-.638zm.82 7.02c.806 0 1.459.666 1.459 1.487 0 .822-.653 1.488-1.459 1.488-.805 0-1.458-.666-1.458-1.488 0-.821.653-1.488 1.458-1.488z" fill-rule="nonzero"/></svg>
