<svg width="14" height="14" xmlns="http://www.w3.org/2000/svg"><path d="M8.25 11.524c.276 0 .5.22.5.492a.496.496 0 0 1-.5.491h-.636a.127.127 0 0 0-.124.1A.498.498 0 0 1 7 13a.498.498 0 0 1-.49-.393.126.126 0 0 0-.124-.1H5.75c-.276 0-.5-.22-.5-.491 0-.272.224-.492.5-.492zm0-1.356c.276 0 .5.22.5.491a.496.496 0 0 1-.5.492h-2.5c-.276 0-.5-.22-.5-.492 0-.271.224-.491.5-.491zM7 3.413c1.783.031 3.22 1.446 3.25 3.2A3.115 3.115 0 0 1 8.272 9.55a.128.128 0 0 1-.045.009h-.725a.126.126 0 0 1-.127-.125V7.798c0-.033.013-.065.037-.088l.853-.839a.365.365 0 0 0-.01-.512.38.38 0 0 0-.52-.01l-.645.635a.128.128 0 0 1-.18 0l-.645-.634a.38.38 0 0 0-.51.017.364.364 0 0 0-.02.502l.854.839a.125.125 0 0 1 .037.088v1.637a.126.126 0 0 1-.127.125h-.724a.133.133 0 0 1-.046-.009A3.115 3.115 0 0 1 3.75 6.61C3.78 4.858 5.218 3.444 7 3.413zM2.646 5.871c.276 0 .5.22.5.492a.496.496 0 0 1-.5.491H1.5c-.276 0-.5-.22-.5-.491 0-.272.224-.492.5-.492zm9.854 0c.276 0 .5.22.5.492a.496.496 0 0 1-.5.491h-1.146c-.276 0-.5-.22-.5-.491 0-.272.224-.492.5-.492zm-1.649-3.498a.506.506 0 0 1 .707 0 .486.486 0 0 1 .002.695l-.955.938a.506.506 0 0 1-.485.134.496.496 0 0 1-.357-.351.486.486 0 0 1 .136-.478zm-8.403.005a.506.506 0 0 1 .701-.005l.952.938c.178.194.17.49-.018.675a.506.506 0 0 1-.686.02l-.955-.938a.486.486 0 0 1 .006-.69zM7 1c.276 0 .5.22.5.491v.939a.496.496 0 0 1-.5.491c-.276 0-.5-.22-.5-.491V1.49C6.5 1.22 6.724 1 7 1z" fill-rule="nonzero"/></svg>
