<svg width="14" height="14" xmlns="http://www.w3.org/2000/svg"><path d="M13 3.155a4.906 4.906 0 0 1-1.414.387A2.47 2.47 0 0 0 12.67 2.18a4.93 4.93 0 0 1-1.564.597A2.462 2.462 0 0 0 6.91 5.023a6.99 6.99 0 0 1-5.074-2.572 2.46 2.46 0 0 0 .762 3.286 2.45 2.45 0 0 1-1.115-.307v.03c0 1.193.848 2.188 1.975 2.414a2.475 2.475 0 0 1-1.112.043 2.463 2.463 0 0 0 2.3 1.71A4.94 4.94 0 0 1 1 10.646a6.968 6.968 0 0 0 3.774 1.106c4.528 0 7.005-3.752 7.005-7.005 0-.107-.003-.213-.007-.319A5.01 5.01 0 0 0 13 3.155" fill-rule="nonzero"/></svg>
