<svg version="1.0" xmlns="http://www.w3.org/2000/svg" width="682.667" height="682.667" viewBox="0 0 512 512"><path d="M114.8 45.5c-.1.1-2.9.5-6 .9-6.3.6-17.2 3.5-23.2 6.1-16.1 6.9-30 22.8-33.2 38-.1.5-.7 3-1.3 5.5-.6 2.5-.9 9.7-.7 16 .6 17.5 4.7 28.4 14.8 39.5 10.1 11.1 21.6 15.8 51 20.9 31.2 5.4 37.9 9.9 38.3 25.9.5 15.7-7.3 25-23.2 28.1-7.5 1.4-17.5 1.1-26.3-.8-7-1.6-22.7-9.4-27-13.5-.9-.9-3.6-3.4-6-5.5l-4.3-3.9-4.1 4.5c-11.8 13.1-17.6 19.6-19.9 22l-2.5 2.6 5.7 5.6c6.8 6.8 13.5 11.7 21.6 15.8 6.9 3.6 18.4 7.6 23.5 8.4 1.9.3 4.1.7 4.9 1 5 1.7 26.4 2.3 38.1 1.1 19.1-2 35.7-9.4 47.6-21.2 12-12 18-27.2 18.2-46 .3-33.3-17.6-53.3-54.1-60.4-5.9-1.2-15.5-3-21.4-4.2-20.3-3.9-27.5-9.1-28.9-21-2.3-18.8 9.4-29.1 32.3-28.4 4.3.1 10.4.8 13.4 1.5 8.1 1.8 18.9 7.4 25.2 13.1l5.6 5 3.8-4.2c2.1-2.3 4.3-4.7 4.8-5.3C192.6 80.3 198 74 198 73.2c0-1.9-12.5-11.9-20-16-9.9-5.4-20.2-8.7-32.6-10.6-8.6-1.2-29.5-2-30.6-1.1zM232.7 48.8c-1.2.3-1.7 1.4-1.8 4-.3 20.9.1 138.5.6 144.1.5 6.3 2.9 21.2 3.9 24.6.2.5.6 2.3 1.1 4 .4 1.6 1.1 3.4 1.5 4 .4.5 1.1 2.1 1.5 3.5 2.7 8.9 16.7 22.1 27.5 25.9 18.3 6.5 46.3 7.5 67.9 2.5 22.7-5.2 37.7-22.2 41.7-47 .3-2.1.8-4.2.9-4.5 1.4-2.2 2-27.9 2-89.8V48.6l-22 .2c-12.1 0-22.3.1-22.7.1-.4.1-.8 35.3-1 78.3-.4 86.8-.2 84.7-7 92.4-4.7 5.3-9.7 7.4-18.8 7.9-19.8 1-28.6-6.5-30.7-26-.4-3.3-.7-39-.8-79.2V49l-2.5-.1c-9.2-.3-40-.3-41.3-.1zM419.9 53v206.3c.1 1.6 1.7 1.7 22.8 1.5l22.8-.3V154.8c0-69.8-.3-105.8-1-105.9-.5 0-10.8-.1-22.8-.2l-21.7-.2-.1 4.5zM94.7 291.2c-2.5 6.9-18.7 49.1-19.7 51.3-.5 1.1-2.9 7.2-5.4 13.5-2.4 6.3-6 15.8-8.1 21-2 5.2-5 13.1-6.7 17.5-1.6 4.4-3.4 8.9-3.9 10-.5 1.1-1.8 4.5-2.9 7.5-1.1 3-2.4 6.4-2.9 7.5-.5 1.1-2.3 5.8-4.1 10.5-1.7 4.7-4 10.5-5.1 13-1 2.5-5.7 14.6-10.5 27-4.7 12.4-8.8 23.1-9.1 23.8-.4.9 1.6 1.2 7.9 1.2h8.3l4.4-11.3c2.4-6.1 6.2-16.2 8.6-22.2 2.3-6.1 7.7-20 11.9-31s8.1-20.9 8.6-22c.5-1.1 6.4-16.2 13-33.5 6.7-17.3 13.2-34.2 14.5-37.5 6.5-16.7 16.9-43.4 18.1-46.8l1.3-3.7H96.2l-1.5 4.2zM159 382.2v80.9l26.9-.2c29.8-.1 35.3-.9 45.9-6.2 11.5-5.8 21.6-19.1 25.9-34 2.9-10.3 4.3-19.5 4.9-33.7 1.8-41.8-9.6-71.3-31.8-81.8-10.2-4.9-14.1-5.4-44-5.7l-27.8-.2v80.9zm57.9-61.8c12 4.5 20.3 15.5 23.6 31.4 1.8 8.3 2.5 37.5 1.3 51-2 22.8-11.3 37.1-27.3 41.7-3.9 1.2-9.1 1.5-20.6 1.3l-15.4-.3-.1-63c0-34.7.1-63.3.3-63.7.2-.4 7.9-.5 17.1-.4 12.4.3 17.8.8 21.1 2zM304 382.2V463h9.4c6.6 0 9.5-.4 9.8-1.3.2-.6.4-37 .3-80.7v-79.5l-9.8-.1H304v80.8zM372 303.4c-.1 2.9-.1 153.5-.1 156.8l.1 2.8h9.5c6.9 0 9.5-.3 9.6-1.3 0-.6.1-16.1.2-34.2l.2-33H417.2l14.1 24.5c7.7 13.5 15.3 27 17 30 1.6 3 3.8 6.6 4.7 8 .9 1.4 2 3.3 2.3 4.3.6 1.5 2.1 1.7 11.7 1.7h11.1l-1.8-3.3c-1-1.7-2.1-3.4-2.5-3.5-.5-.2-.8-.7-.8-1.1 0-.5-8.1-14.5-17.9-31.2l-17.9-30.4 3.1-.8c14.4-3.8 19.5-6.4 25.7-13.4 7.4-8.4 11.1-20.8 10.4-34.9-1-21-10.4-34.3-28.4-40.5-6.2-2.1-8.2-2.2-41.2-2.4-34.7-.2-34.8-.2-34.8 1.9zm71 17.2c5.7 2.6 10.6 8.1 12.1 13.6 1.7 6.4.7 27.4-1.5 31.5-2.4 4.6-8 8.9-13.5 10.4-4.2 1.2-44.6 2.2-47.7 1.2-.8-.3-1.1-8.9-1.1-29.1 0-15.8.1-29 .3-29.3.2-.4 10.9-.6 23.6-.5 20.9.2 23.8.4 27.8 2.2z"/></svg>